<svg t="1712884753754" class="icon" viewBox="0 0 1024 1024" version="1.1" xmlns="http://www.w3.org/2000/svg" p-id="9928" width="250" height="250"><path d="M578.68288 689.35168l49.02912 0 0 64.39936c0 16.58368 13.45024 29.99808 30.00832 29.99808 16.59392 0 30.00832-13.4144 30.00832-29.99808l0-64.39936 49.1008 0c16.55808 0 30.00832-13.42464 30.00832-30.00832 0-16.58368-13.45024-29.99808-30.00832-29.99808l-49.1008 0 0-64.34304c0-16.58368-13.4144-30.00832-30.00832-30.00832-16.55808 0-30.00832 13.42464-30.00832 30.00832l0 64.34304-49.02912 0c-16.6144 0-30.00832 13.4144-30.00832 29.99808C548.67456 675.92704 562.06848 689.35168 578.68288 689.35168z" fill="#D99797" p-id="9929"></path><path d="M673.33632 278.50752l0-40.07424 26.2656 0c16.57344 0 29.98784-13.41952 29.98784-30.00832L729.58976 35.90656c0-16.57344-13.4144-29.99808-29.98784-29.99808L299.91936 5.90848c-16.57344 0-30.00832 13.42464-30.00832 29.99808l0 172.52352c0 16.58368 13.43488 30.00832 30.00832 30.00832l26.20928 0 0 40.07424C234.56256 286.88896 162.56 364.07296 162.56 457.82016l0 386.16064c0 99.28192 80.74752 180.0192 180.00896 180.0192l314.33728 0c99.26144 0 180.00896-80.73728 180.00896-180.0192L836.9152 457.82016C836.92032 364.07296 764.91776 286.88896 673.33632 278.50752zM776.92416 836.49536 472.68864 836.49536 472.68864 482.20672l304.23552 0L776.92416 836.49536zM393.67168 178.42688 393.67168 65.91488l30.53568 0 0 112.512L393.67168 178.42688zM454.21056 65.91488l30.53568 0 0 112.512-30.53568 0L454.21056 65.91488zM514.73408 65.91488l30.57152 0 0 112.512-30.57152 0L514.73408 65.91488zM575.31392 65.91488l30.5152 0 0 112.512-30.5152 0L575.31392 65.91488zM669.57312 178.42688l-26.22464 0-7.50592 0L635.84256 65.91488l33.73568 0L669.57824 178.42688zM329.9072 65.91488l33.77152 0 0 112.512-7.54176 0-26.22976 0L329.9072 65.91488zM656.91136 963.9936 342.57408 963.9936c-66.1504 0-120.0128-53.84704-120.0128-120.0128L222.56128 457.82016c0-66.21696 53.8624-120.0128 120.0128-120.0128l13.56288 0c16.59392 0 30.00832-13.4144 30.00832-29.99808l0-69.376 227.1744 0 0 69.376c0 16.58368 13.47072 29.99808 30.0288 29.99808l13.56288 0c64.2304 0 116.41856 50.86208 119.4496 114.39616L457.69216 452.20352c-8.29952 0-14.99648 6.67136-14.99648 14.99648l0 384.28672c0 8.32512 6.69696 15.0016 14.99648 15.0016l316.93312 0C764.05248 921.92768 715.34592 963.9936 656.91136 963.9936z" fill="#D99797" p-id="9930"></path></svg>