<svg t="1711893884588" class="icon" viewBox="0 0 1024 1024" version="1.1" xmlns="http://www.w3.org/2000/svg" p-id="3666" width="250" height="250"><path d="M837.12 166.4c11.264 0 20.48 9.216 20.48 20.48v496.64c0 11.264-9.216 20.48-20.48 20.48h-496.64c-11.264 0-20.48-9.216-20.48-20.48v-496.64c0-11.264 9.216-20.48 20.48-20.48h496.64m0-51.2h-496.64c-39.424 0-71.68 32.256-71.68 71.68v496.64c0 39.424 32.256 71.68 71.68 71.68h496.64c39.424 0 71.68-32.256 71.68-71.68v-496.64c0-39.424-32.256-71.68-71.68-71.68z" p-id="3667" fill="#b6c2cf"></path><path d="M676.352 921.6H194.048C143.36 921.6 102.4 880.64 102.4 829.952V347.648C102.4 296.96 143.36 256 194.048 256h28.672v51.2h-28.672c-22.528 0-40.448 18.432-40.448 40.448v482.304c0 22.528 18.432 40.448 40.448 40.448h482.304c22.528 0 40.448-18.432 40.448-40.448v-29.696h51.2v29.696c0 50.688-40.96 91.648-91.648 91.648zM683.7248 303.7696l86.90688-86.8864 36.1984 36.20352-86.89664 86.8864z" p-id="3668" fill="#b6c2cf"></path><path d="M683.68384 253.1072l36.1984-36.1984 86.89152 86.8864-36.1984 36.1984z" p-id="3669" fill="#b6c2cf"></path></svg>