<svg t="1712885152662" class="icon" viewBox="0 0 1024 1024" version="1.1" xmlns="http://www.w3.org/2000/svg" p-id="12837" width="250" height="250"><path d="M853.333333 56.888889H170.666667a113.777778 113.777778 0 0 0-113.777778 113.777778v682.666666a113.777778 113.777778 0 0 0 113.777778 113.777778h682.666666a113.777778 113.777778 0 0 0 113.777778-113.777778V170.666667a113.777778 113.777778 0 0 0-113.777778-113.777778z m56.888889 796.444444a56.888889 56.888889 0 0 1-56.888889 56.888889H170.666667a56.888889 56.888889 0 0 1-56.888889-56.888889V170.666667a56.888889 56.888889 0 0 1 56.888889-56.888889h682.666666a56.888889 56.888889 0 0 1 56.888889 56.888889z" fill="#acbecc" p-id="12838"></path><path d="M426.666667 512h-227.555556a28.444444 28.444444 0 0 0-28.444444 28.444444 28.444444 28.444444 0 0 0 28.444444 28.444445H284.444444v199.111111a28.444444 28.444444 0 1 0 56.888889 0V568.888889h85.333334a28.444444 28.444444 0 0 0 28.444444-28.444445 28.444444 28.444444 0 0 0-28.444444-28.444444zM824.888889 341.333333h-341.333333a28.444444 28.444444 0 0 0-28.444445 28.444445 28.444444 28.444444 0 0 0 28.444445 28.444444H625.777778v369.777778a28.444444 28.444444 0 1 0 56.888889 0V398.222222h142.222222a28.444444 28.444444 0 0 0 28.444444-28.444444 28.444444 28.444444 0 0 0-28.444444-28.444445z" fill="#acbecc" p-id="12839"></path></svg>