<svg t="1712038185887" class="icon" viewBox="0 0 1024 1024" version="1.1" xmlns="http://www.w3.org/2000/svg" p-id="3655" width="250" height="250"><path d="M321.389714 737.206857l-7.606857-13.897143 7.606857-13.897143C394.752 575.634286 522.971429 492.251429 664.576 492.251429s269.897143 83.382857 343.186286 217.234285l7.606857 13.897143-7.606857 13.897143c-73.142857 133.851429-201.654857 217.234286-343.186286 217.234286-141.458286 0-269.897143-83.382857-343.113143-217.234286h-0.073143z m343.186286 159.451429c114.614857 0 220.16-65.536 284.598857-173.348572-64.512-107.812571-169.984-173.348571-284.525714-173.348571-114.614857 0-220.086857 65.536-284.525714 173.348571 64.438857 107.812571 169.910857 173.348571 284.525714 173.348572z" fill="#2c2c2c" p-id="3656"></path><path d="M664.576 838.948571a115.565714 115.565714 0 1 0 0-231.204571 115.565714 115.565714 0 0 0 0 231.131429z m0-57.856a57.782857 57.782857 0 1 1 0-115.565714 57.782857 57.782857 0 0 1 0 115.565714z" fill="#2c2c2c" p-id="3657"></path><path d="M751.323429 440.173714h-57.782858V58.660571H57.782857v809.106286h317.878857v57.782857H57.782857a57.782857 57.782857 0 0 1-57.782857-57.782857V58.660571a57.782857 57.782857 0 0 1 57.782857-57.782857h635.684572a57.782857 57.782857 0 0 1 57.782857 57.782857v381.513143z" fill="#2c2c2c" p-id="3658"></path><path d="M144.457143 232.082286h404.553143a28.891429 28.891429 0 1 1 0 57.782857h-404.48a28.891429 28.891429 0 1 1 0-57.782857z m0 57.782857a28.891429 28.891429 0 1 0 0-57.782857h404.553143a28.891429 28.891429 0 0 0 0 57.782857h-404.48z m0 173.348571h173.348571a28.891429 28.891429 0 1 1 0 57.782857h-173.348571a28.891429 28.891429 0 1 1 0-57.782857z m0 57.782857a28.891429 28.891429 0 1 0 0-57.782857h173.348571a28.891429 28.891429 0 0 0 0 57.782857h-173.348571z" fill="#2c2c2c" p-id="3659"></path></svg>