<svg t="1711701806784" class="icon" viewBox="0 0 1024 1024" version="1.1" xmlns="http://www.w3.org/2000/svg" p-id="44221" width="250" height="250"><path d="M227.555556 625.777778H170.666667V398.222222h56.888889z m0 170.666666v170.666667H170.666667v-170.666667zM227.555556 227.555556H170.666667V56.888889h56.888889z" fill="#b6c5d3" p-id="44222"></path><path d="M199.111111 426.666667a113.777778 113.777778 0 1 1 113.777778-113.777778 113.777778 113.777778 0 0 1-113.777778 113.777778z m0-56.888889a56.888889 56.888889 0 1 0-56.888889-56.888889 56.888889 56.888889 0 0 0 56.888889 56.888889zM398.222222 227.555556h568.888889v56.888888H398.222222z" fill="#b6c5d3" p-id="44223"></path><path d="M398.222222 341.333333h398.222222v56.888889H398.222222zM398.222222 625.777778h568.888889v56.888889H398.222222zM398.222222 739.555556h398.222222v56.888888H398.222222z" fill="#b6c5d3" p-id="44224"></path><path d="M199.111111 824.888889a113.777778 113.777778 0 1 1 113.777778-113.777778 113.777778 113.777778 0 0 1-113.777778 113.777778z m0-56.888889a56.888889 56.888889 0 1 0-56.888889-56.888889 56.888889 56.888889 0 0 0 56.888889 56.888889z" fill="#b6c5d3" p-id="44225"></path></svg>