<svg t="1712884733793" class="icon" viewBox="0 0 1024 1024" version="1.1" xmlns="http://www.w3.org/2000/svg" p-id="9765" width="250" height="250"><path d="M637.87008 6.30272c-11.53536-1.75616-23.35744-1.11104-34.98496-1.11104-47.34464 0-94.68928 0-142.03392 0-32.27648 0-67.08224-3.77856-99.14368 1.11104-37.76 5.76512-62.336 37.69344-64.2048 74.73664-1.64864 32.6912 20.1728 57.72288 47.92832 69.26336-2.58048 66.06336 0.4096 132.92032 0.4096 198.90176 0 126.09024 0 252.1856 0 378.27584 0 42.86464 0 85.72928 0 128.5888 0 38.35392 1.6128 74.24512 26.43456 106.71104 50.12992 65.5616 158.29504 76.01152 224.67584 29.39904 42.496-29.8496 56.78592-74.84928 56.78592-124.11392 0-216.81152 0-433.6128 0-650.42944 0-22.2976 0.74752-44.78976 0.29184-67.15392 25.81504-10.5472 43.48928-32.5632 47.37024-62.08512 0.55808-2.21696 0.8192-4.66944 0.68096-7.36256 0.14848-2.87744-0.13824-5.48352-0.77824-7.81824C696.6016 39.59296 672.94208 11.65824 637.87008 6.30272L637.87008 6.30272zM629.60128 109.12768 629.60128 109.12768c-12.29312 1.42848-24.58112 9.7536-23.79776 23.79776 3.98336 71.69024 0.3328 144.51712 0.3328 216.27904 0 126.09024 0 252.1856 0 378.27584 0 42.86464 0 85.72928 0 128.5888 0 36.17792-0.77312 70.10304-33.21344 95.01696-59.22304 45.48096-177.32096 20.38272-179.48672-65.26976-0.51712-20.53632 0-41.15968 0-61.70112 0-219.02336 0-438.0416 0-657.05984 0-11.37152-0.29184-22.77376 0.3328-34.12992 0.77312-14.04416-11.49952-22.36928-23.79776-23.79776-24.704-2.87232-33.64352-35.79904-13.71136-50.70336 8.48384-6.34368 18.11968-5.63712 27.96032-5.63712 31.95904 0 63.91808 0 95.88224 0 37.4528 0 74.9056 0 112.3584 0 23.58272 0 60.29824-5.65248 62.01344 28.25216C653.7472 95.13984 644.23424 107.43296 629.60128 109.12768L629.60128 109.12768z" fill="#A8C15C" p-id="9766"></path><path d="M421.20192 885.82144c0 32.20992 30.76608 58.41408 68.57728 58.41408l20.01408 0c37.8112 0 68.57728-26.20416 68.57728-58.41408L578.37056 422.16448 421.20192 422.16448 421.20192 885.82144 421.20192 885.82144z" fill="#acbecc" p-id="9767"></path></svg>